<?xml version="1.0" encoding="UTF-8"?>
<svg version="1.1" xmlns="http://www.w3.org/2000/svg" width="618" height="89">
<path d="M0 0 C1.53333984 0.01353516 1.53333984 0.01353516 3.09765625 0.02734375 C5.60701522 0.0507957 8.11588336 0.08361645 10.625 0.125 C10.625 2.435 10.625 4.745 10.625 7.125 C9.64104248 7.16258423 9.64104248 7.16258423 8.63720703 7.20092773 C5.67459817 7.3167326 2.71231969 7.43952886 -0.25 7.5625 C-1.28253906 7.60181641 -2.31507812 7.64113281 -3.37890625 7.68164062 C-4.36503906 7.72353516 -5.35117187 7.76542969 -6.3671875 7.80859375 C-7.27839355 7.84525146 -8.18959961 7.88190918 -9.12841797 7.91967773 C-11.40983481 7.99077065 -11.40983481 7.99077065 -13.375 9.125 C-13.045 10.775 -12.715 12.425 -12.375 14.125 C-11.50548706 14.13901855 -11.50548706 14.13901855 -10.6184082 14.15332031 C-7.97393054 14.2072407 -5.33118107 14.29084129 -2.6875 14.375 C-1.77548828 14.38917969 -0.86347656 14.40335938 0.07617188 14.41796875 C4.39691384 14.57508664 6.97508457 14.71972954 10.70703125 17.046875 C13.93344479 20.54270392 14.0141 23.24847483 13.984375 27.86328125 C13.41443134 31.45020929 11.42273951 32.99338894 8.625 35.125 C5.80675808 36.53412096 3.45248718 36.23683553 0.3046875 36.22265625 C-0.95214844 36.21943359 -2.20898438 36.21621094 -3.50390625 36.21289062 C-4.82261719 36.20451172 -6.14132813 36.19613281 -7.5 36.1875 C-8.83984211 36.18248489 -10.179686 36.17792201 -11.51953125 36.17382812 C-14.80473206 36.16201086 -18.08984397 36.14553617 -21.375 36.125 C-21.375 33.815 -21.375 31.505 -21.375 29.125 C-12.465 28.795 -3.555 28.465 5.625 28.125 C5.625 26.475 5.625 24.825 5.625 23.125 C4.39523438 23.08761719 3.16546875 23.05023437 1.8984375 23.01171875 C0.26559599 22.94602972 -1.36721518 22.87958341 -3 22.8125 C-3.80824219 22.78994141 -4.61648437 22.76738281 -5.44921875 22.74414062 C-11.30049794 22.48249806 -15.75184119 21.48584293 -20.25 17.4375 C-21.91402152 14.01701131 -22.02634448 10.80619409 -21.375 7.125 C-19.57719592 3.94426971 -18.24985529 2.52877936 -14.9375 1 C-9.93163975 -0.22950953 -5.1320452 -0.08608592 0 0 Z " fill="#8680FF" transform="translate(28.375,4.875)"/>
<path d="M0 0 C1.20462891 -0.02416992 1.20462891 -0.02416992 2.43359375 -0.04882812 C7.14595893 -0.05270981 10.30934515 0.23753109 14.125 3.3125 C16.40648739 7.87547478 15.44519917 14.11570559 15.5 19.125 C15.53738281 20.40955078 15.57476562 21.69410156 15.61328125 23.01757812 C15.62488281 24.25572266 15.63648438 25.49386719 15.6484375 26.76953125 C15.66825684 27.90366455 15.68807617 29.03779785 15.70849609 30.20629883 C14.93831184 34.30632151 13.37307368 35.77580904 10.125 38.3125 C8.08862305 38.88012695 8.08862305 38.88012695 6.13671875 38.80078125 C5.43095703 38.78466797 4.72519531 38.76855469 3.99804688 38.75195312 C2.91620117 38.68911133 2.91620117 38.68911133 1.8125 38.625 C1.07193359 38.60244141 0.33136719 38.57988281 -0.43164062 38.55664062 C-2.24697357 38.4980815 -4.06125681 38.40840886 -5.875 38.3125 C-5.91754356 36.31295254 -5.91580783 34.31208364 -5.875 32.3125 C-4.875 31.3125 -4.875 31.3125 -1.93359375 31.21484375 C1.41927083 31.24739583 4.77213542 31.27994792 8.125 31.3125 C8.125 23.3925 8.125 15.4725 8.125 7.3125 C3.505 7.6425 -1.115 7.9725 -5.875 8.3125 C-6.205 12.2725 -6.535 16.2325 -6.875 20.3125 C-2.585 20.3125 1.705 20.3125 6.125 20.3125 C6.125 22.6225 6.125 24.9325 6.125 27.3125 C3.89644426 27.3939222 1.66702345 27.45188079 -0.5625 27.5 C-2.42455078 27.55220703 -2.42455078 27.55220703 -4.32421875 27.60546875 C-8.15723518 27.28921327 -9.93266411 26.75649432 -12.875 24.3125 C-15.65201002 19.27025522 -15.4172093 13.91532943 -14.875 8.3125 C-11.88639477 0.20057152 -7.73874421 -0.03075812 0 0 Z " fill="#8680FF" transform="translate(375.875,13.6875)"/>
<path d="M0 0 C1.19206055 -0.04930664 1.19206055 -0.04930664 2.40820312 -0.09960938 C6.86681005 -0.14017569 10.75225551 0.16905789 14.1262207 3.46459961 C16.71047414 8.26868335 15.99049832 14.14069313 15.875 19.4375 C15.88982422 20.70851563 15.90464844 21.97953125 15.91992188 23.2890625 C15.83878344 32.35747592 15.83878344 32.35747592 13.1640625 36.79296875 C9.22138414 38.97127267 6.29410166 39.00669491 1.875 38.75 C1.13443359 38.72744141 0.39386719 38.70488281 -0.36914062 38.68164062 C-2.18447357 38.6230815 -3.99875681 38.53340886 -5.8125 38.4375 C-5.8125 36.1275 -5.8125 33.8175 -5.8125 31.4375 C-1.1925 31.4375 3.4275 31.4375 8.1875 31.4375 C7.6925 20.0525 7.6925 20.0525 7.1875 8.4375 C5.063125 8.416875 2.93875 8.39625 0.75 8.375 C-1.04244141 8.35759766 -1.04244141 8.35759766 -2.87109375 8.33984375 C-5.70123341 8.09848208 -5.70123341 8.09848208 -6.8125 9.4375 C-6.88476502 11.29037502 -6.8963122 13.14583878 -6.875 15 C-6.854375 16.794375 -6.83375 18.58875 -6.8125 20.4375 C-2.5225 20.4375 1.7675 20.4375 6.1875 20.4375 C6.1875 22.7475 6.1875 25.0575 6.1875 27.4375 C3.95894426 27.5189222 1.72952345 27.57688079 -0.5 27.625 C-2.36205078 27.67720703 -2.36205078 27.67720703 -4.26171875 27.73046875 C-8.09473518 27.41421327 -9.87016411 26.88149432 -12.8125 24.4375 C-15.58951002 19.39525522 -15.3547093 14.04032943 -14.8125 8.4375 C-11.84925816 0.394415 -7.6987286 0.05538654 0 0 Z " fill="#8680FF" transform="translate(597.8125,13.5625)"/>
<path d="M0 0 C2.31 0 4.62 0 7 0 C7.33 4.29 7.66 8.58 8 13 C8.80824219 12.04996094 9.61648437 11.09992187 10.44921875 10.12109375 C11.52778162 8.89246996 12.60725655 7.66464643 13.6875 6.4375 C14.21794922 5.80908203 14.74839844 5.18066406 15.29492188 4.53320312 C15.82021484 3.94345703 16.34550781 3.35371094 16.88671875 2.74609375 C17.36326904 2.19622803 17.83981934 1.6463623 18.33081055 1.07983398 C20 0 20 0 25 1 C25.33 5.95 25.66 10.9 26 16 C30.05730047 10.83616304 33.23560055 5.95409113 36 0 C38.64 0 41.28 0 44 0 C41.17758414 9.7963217 34.59428136 20.32453118 26 26 C22.6875 27 22.6875 27 20 27 C17.41073669 24.41073669 17.62601957 22.97294721 17.375 19.375 C17.30023438 18.37210938 17.22546875 17.36921875 17.1484375 16.3359375 C17.09945312 15.56507812 17.05046875 14.79421875 17 14 C16.55269531 14.51949219 16.10539062 15.03898437 15.64453125 15.57421875 C13.77682709 17.72864935 11.89037461 19.86545201 10 22 C9.525625 22.55429687 9.05125 23.10859375 8.5625 23.6796875 C7.3125 25.0625 7.3125 25.0625 5 27 C2.68983403 26.87165745 1.63394255 26.63394255 0 25 C-0.08737645 23.14630389 -0.10698153 21.28932459 -0.09765625 19.43359375 C-0.09443359 18.30888672 -0.09121094 17.18417969 -0.08789062 16.02539062 C-0.07951172 14.84138672 -0.07113281 13.65738281 -0.0625 12.4375 C-0.05798828 11.24962891 -0.05347656 10.06175781 -0.04882812 8.83789062 C-0.03699675 5.89187774 -0.02051287 2.94596319 0 0 Z " fill="#8580FF" transform="translate(136,14)"/>
<path d="M0 0 C1.29421875 0.00515625 2.5884375 0.0103125 3.921875 0.015625 C4.59444336 0.0259375 5.26701172 0.03625 5.95996094 0.046875 C8.02296975 0.07811792 10.08521523 0.08785508 12.1484375 0.09375 C22.24467115 0.17435865 22.24467115 0.17435865 23.3984375 1.328125 C23.3984375 3.308125 23.3984375 5.288125 23.3984375 7.328125 C14.8184375 7.328125 6.2384375 7.328125 -2.6015625 7.328125 C-2.2715625 14.258125 -1.9415625 21.188125 -1.6015625 28.328125 C6.6484375 28.658125 14.8984375 28.988125 23.3984375 29.328125 C23.3984375 31.308125 23.3984375 33.288125 23.3984375 35.328125 C20.81325726 37.91330524 13.68199176 36.61161898 10.2109375 36.640625 C8.50454102 36.68413086 8.50454102 36.68413086 6.76367188 36.72851562 C0.37666612 36.77698677 -3.81944996 36.77986707 -8.6015625 32.328125 C-10.83044496 27.87036009 -9.83148979 21.7858573 -9.8515625 16.890625 C-9.8721875 15.63701172 -9.8928125 14.38339844 -9.9140625 13.09179688 C-9.91921875 11.89232422 -9.924375 10.69285156 -9.9296875 9.45703125 C-9.9390332 8.35431885 -9.94837891 7.25160645 -9.95800781 6.11547852 C-9.6015625 3.328125 -9.6015625 3.328125 -8.49365234 1.46557617 C-5.6536089 -0.24174801 -3.29144211 -0.02578734 0 0 Z " fill="#8680FF" transform="translate(299.6015625,4.671875)"/>
<path d="M0 0 C2.72977064 -0.08126109 5.4571017 -0.14061663 8.1875 -0.1875 C9.34088867 -0.22520508 9.34088867 -0.22520508 10.51757812 -0.26367188 C15.16229839 -0.32347514 18.28625625 -0.11227113 22 3 C25.27710537 7.61368913 24.47553735 13.61057674 24 19 C22.47506657 23.2117209 21.72020689 24.51986208 18 27 C15.05675054 27.44685722 12.0986913 27.37027235 9.125 27.375 C8.32191406 27.39949219 7.51882812 27.42398438 6.69140625 27.44921875 C2.60849844 27.46939787 0.52385894 27.33064343 -3.0078125 25.1015625 C-5.38335997 22.59559282 -5.93115177 21.6196341 -6.3125 18.1875 C-5.92835642 14.2692355 -4.70743683 12.78706733 -2 10 C1.06533164 8.46733418 4.26754272 8.89723529 7.625 8.9375 C8.68460938 8.94426758 8.68460938 8.94426758 9.765625 8.95117188 C11.51045275 8.96296125 13.255237 8.98089676 15 9 C15 11.31 15 13.62 15 16 C10.38 16 5.76 16 1 16 C1 17.32 1 18.64 1 20 C5.95 19.67 10.9 19.34 16 19 C16 15.37 16 11.74 16 8 C10.72 7.67 5.44 7.34 0 7 C0 4.69 0 2.38 0 0 Z " fill="#8580FF" transform="translate(185,14)"/>
<path d="M0 0 C0.75990234 -0.020625 1.51980469 -0.04125 2.30273438 -0.0625 C6.94518233 -0.09476723 9.89365425 0.28311107 13.6875 3.25 C15.58340453 5.74914688 15.69218866 7.02963304 15.625 10.1875 C14.41119363 14.15260082 12.92984976 15.67341272 9.6875 18.25 C6.8487599 18.61771245 4.66929849 18.73630804 1.875 18.5625 C1.18212891 18.53994141 0.48925781 18.51738281 -0.22460938 18.49414062 C-1.92151573 18.43562661 -3.61729861 18.3459548 -5.3125 18.25 C-5.3125 15.94 -5.3125 13.63 -5.3125 11.25 C1.1225 10.755 1.1225 10.755 7.6875 10.25 C7.6875 9.59 7.6875 8.93 7.6875 8.25 C2.7375 7.92 -2.2125 7.59 -7.3125 7.25 C-7.3125 11.54 -7.3125 15.83 -7.3125 20.25 C-2.6925 20.25 1.9275 20.25 6.6875 20.25 C6.6875 22.56 6.6875 24.87 6.6875 27.25 C4.29043877 27.35854617 1.89834162 27.43753157 -0.5 27.5 C-1.17353516 27.53351562 -1.84707031 27.56703125 -2.54101562 27.6015625 C-6.20291975 27.67301429 -8.13400622 27.36534178 -11.23828125 25.359375 C-14.74296294 21.79529193 -14.55673661 18.71138662 -14.625 13.9375 C-14.66238281 12.62136719 -14.69976562 11.30523437 -14.73828125 9.94921875 C-14.25469336 5.74777168 -13.28178843 4.18623513 -10.3125 1.25 C-7.0732886 -0.3696057 -3.55545619 0.02376245 0 0 Z " fill="#8580FF" transform="translate(490.3125,13.75)"/>
<path d="M0 0 C0.80308594 -0.02449219 1.60617187 -0.04898437 2.43359375 -0.07421875 C6.51650156 -0.09439787 8.60114106 0.04435657 12.1328125 2.2734375 C14.50835997 4.77940718 15.05615177 5.7553659 15.4375 9.1875 C15.05335642 13.1057645 13.83243683 14.58793267 11.125 17.375 C8.05966836 18.90766582 4.85745728 18.47776471 1.5 18.4375 C0.79359375 18.43298828 0.0871875 18.42847656 -0.640625 18.42382812 C-2.38545275 18.41203875 -4.130237 18.39410324 -5.875 18.375 C-5.875 16.065 -5.875 13.755 -5.875 11.375 C-1.255 11.375 3.365 11.375 8.125 11.375 C8.125 10.055 8.125 8.735 8.125 7.375 C3.175 7.705 -1.775 8.035 -6.875 8.375 C-6.875 12.005 -6.875 15.635 -6.875 19.375 C-2.585 19.705 1.705 20.035 6.125 20.375 C6.125 22.685 6.125 24.995 6.125 27.375 C3.89644426 27.4564222 1.66702345 27.51438079 -0.5625 27.5625 C-2.42455078 27.61470703 -2.42455078 27.61470703 -4.32421875 27.66796875 C-8.1372149 27.35336511 -9.91224525 26.7505421 -12.875 24.375 C-16.15210537 19.76131087 -15.35053735 13.76442326 -14.875 8.375 C-11.9414713 0.27287312 -7.71042496 0.01225823 0 0 Z " fill="#8580FF" transform="translate(457.875,13.625)"/>
<path d="M0 0 C0.75990234 -0.020625 1.51980469 -0.04125 2.30273438 -0.0625 C6.94518233 -0.09476723 9.89365425 0.28311107 13.6875 3.25 C15.58340453 5.74914688 15.69218866 7.02963304 15.625 10.1875 C14.41119363 14.15260082 12.92984976 15.67341272 9.6875 18.25 C6.8487599 18.61771245 4.66929849 18.73630804 1.875 18.5625 C1.18212891 18.53994141 0.48925781 18.51738281 -0.22460938 18.49414062 C-1.92151573 18.43562661 -3.61729861 18.3459548 -5.3125 18.25 C-5.3125 15.94 -5.3125 13.63 -5.3125 11.25 C1.1225 10.755 1.1225 10.755 7.6875 10.25 C7.6875 9.59 7.6875 8.93 7.6875 8.25 C2.7375 7.92 -2.2125 7.59 -7.3125 7.25 C-7.3125 11.54 -7.3125 15.83 -7.3125 20.25 C-2.6925 20.25 1.9275 20.25 6.6875 20.25 C6.6875 22.56 6.6875 24.87 6.6875 27.25 C4.29043877 27.35854617 1.89834162 27.43753157 -0.5 27.5 C-1.17353516 27.53351562 -1.84707031 27.56703125 -2.54101562 27.6015625 C-6.20291975 27.67301429 -8.13400622 27.36534178 -11.23828125 25.359375 C-14.74296294 21.79529193 -14.55673661 18.71138662 -14.625 13.9375 C-14.66238281 12.62136719 -14.69976562 11.30523437 -14.73828125 9.94921875 C-14.25469336 5.74777168 -13.28178843 4.18623513 -10.3125 1.25 C-7.0732886 -0.3696057 -3.55545619 0.02376245 0 0 Z " fill="#8580FF" transform="translate(254.3125,13.75)"/>
<path d="M0 0 C1.1127832 -0.00386719 1.1127832 -0.00386719 2.24804688 -0.0078125 C6.71982136 0.07182729 9.90462716 0.50001859 13.4375 3.5 C16.21683382 8.54646414 15.97186679 13.89325923 15.4375 19.5 C14.31526453 22.69837109 13.62514725 24.65753101 10.8515625 26.625 C7.29736899 27.91325137 3.7964346 27.90862937 0.0625 27.9375 C-0.68 27.97037109 -1.4225 28.00324219 -2.1875 28.03710938 C-6.03417489 28.07448872 -8.85548565 27.74543977 -12.0546875 25.50390625 C-15.35424614 21.55163118 -15.4678577 18.99733932 -15.3125 14 C-15.33570313 13.25363281 -15.35890625 12.50726563 -15.3828125 11.73828125 C-15.33745205 7.46683931 -14.87958852 5.87873092 -12.05078125 2.5 C-8.22051765 -0.18175365 -4.54212105 -0.17454439 0 0 Z M-7.5625 8.5 C-7.66101171 10.33115883 -7.69222629 12.16619933 -7.6875 14 C-7.69007812 15.0003125 -7.69265625 16.000625 -7.6953125 17.03125 C-7.84120382 19.44399622 -7.84120382 19.44399622 -6.5625 20.5 C-4.20936445 20.57271741 -1.85416332 20.58370868 0.5 20.5625 C1.79035156 20.55347656 3.08070312 20.54445313 4.41015625 20.53515625 C5.40917969 20.52355469 6.40820312 20.51195312 7.4375 20.5 C8.62056728 18.13386544 8.57104608 16.63219264 8.5625 14 C8.56507812 13.2059375 8.56765625 12.411875 8.5703125 11.59375 C8.57027996 9.44081466 8.57027996 9.44081466 7.4375 7.5 C5.12506208 7.47314588 2.8125373 7.45367159 0.5 7.4375 C-1.43166016 7.42009766 -1.43166016 7.42009766 -3.40234375 7.40234375 C-6.42548403 7.13467451 -6.42548403 7.13467451 -7.5625 8.5 Z " fill="#8680FF" transform="translate(60.5625,13.5)"/>
<path d="M0 0 C0.86238281 0.00322266 1.72476563 0.00644531 2.61328125 0.00976562 C3.46019531 -0.00634766 4.30710937 -0.02246094 5.1796875 -0.0390625 C10.2882505 -0.04303494 14.03625556 0.31301594 18.36328125 3.32226562 C22.29742632 7.70178561 21.71239173 12.57785146 21.55078125 18.13476562 C21.53047852 19.46024414 21.53047852 19.46024414 21.50976562 20.8125 C21.47457342 22.98268585 21.4207711 25.15255596 21.36328125 27.32226562 C19.05328125 27.32226562 16.74328125 27.32226562 14.36328125 27.32226562 C14.31429687 26.11828125 14.2653125 24.91429687 14.21484375 23.67382812 C14.13981782 22.09828365 14.06426992 20.52276396 13.98828125 18.94726562 C13.95734375 18.15320313 13.92640625 17.35914062 13.89453125 16.54101562 C13.84511704 11.95559187 13.84511704 11.95559187 11.36328125 8.32226562 C8.24131789 7.85739845 8.24131789 7.85739845 4.73828125 7.69726562 C2.63453125 7.57351562 0.53078125 7.44976563 -1.63671875 7.32226562 C-1.63671875 13.92226563 -1.63671875 20.52226563 -1.63671875 27.32226562 C-3.94671875 27.32226562 -6.25671875 27.32226562 -8.63671875 27.32226562 C-8.69456583 23.19732411 -8.73026282 19.07248618 -8.76171875 14.94726562 C-8.77847656 13.77164062 -8.79523437 12.59601562 -8.8125 11.38476562 C-8.81894531 10.26328125 -8.82539062 9.14179688 -8.83203125 7.98632812 C-8.84250488 6.94943848 -8.85297852 5.91254883 -8.86376953 4.84423828 C-8.36358893 -0.71153118 -4.48263628 0.03858294 0 0 Z " fill="#8680FF" transform="translate(557.63671875,13.677734375)"/>
<path d="M0 0 C0.86238281 0.00322266 1.72476562 0.00644531 2.61328125 0.00976562 C3.46019531 -0.00634766 4.30710937 -0.02246094 5.1796875 -0.0390625 C10.2882505 -0.04303494 14.03625556 0.31301594 18.36328125 3.32226562 C22.29742632 7.70178561 21.71239173 12.57785146 21.55078125 18.13476562 C21.53047852 19.46024414 21.53047852 19.46024414 21.50976562 20.8125 C21.47457342 22.98268585 21.4207711 25.15255596 21.36328125 27.32226562 C19.05328125 27.32226562 16.74328125 27.32226562 14.36328125 27.32226562 C14.31429688 26.11828125 14.2653125 24.91429687 14.21484375 23.67382812 C14.13981782 22.09828365 14.06426992 20.52276396 13.98828125 18.94726562 C13.95734375 18.15320313 13.92640625 17.35914062 13.89453125 16.54101562 C13.84511704 11.95559187 13.84511704 11.95559187 11.36328125 8.32226562 C8.24131789 7.85739845 8.24131789 7.85739845 4.73828125 7.69726562 C2.63453125 7.57351562 0.53078125 7.44976563 -1.63671875 7.32226562 C-1.63671875 13.92226563 -1.63671875 20.52226563 -1.63671875 27.32226562 C-3.94671875 27.32226562 -6.25671875 27.32226562 -8.63671875 27.32226562 C-8.69456583 23.19732411 -8.73026282 19.07248618 -8.76171875 14.94726562 C-8.77847656 13.77164062 -8.79523438 12.59601562 -8.8125 11.38476562 C-8.81894531 10.26328125 -8.82539063 9.14179688 -8.83203125 7.98632812 C-8.84250488 6.94943848 -8.85297852 5.91254883 -8.86376953 4.84423828 C-8.36358893 -0.71153118 -4.48263628 0.03858294 0 0 Z " fill="#8680FF" transform="translate(417.63671875,13.677734375)"/>
<path d="M0 0 C0.83853516 -0.02449219 1.67707031 -0.04898437 2.54101562 -0.07421875 C8.47284732 -0.10200251 12.01075473 0.82507159 16.8125 4.375 C18.66330108 7.29432461 19.05411876 9.49521164 19.0078125 12.921875 C19.00136719 13.76621094 18.99492187 14.61054688 18.98828125 15.48046875 C18.97152344 16.35316406 18.95476562 17.22585937 18.9375 18.125 C18.92847656 19.01316406 18.91945313 19.90132812 18.91015625 20.81640625 C18.88664577 23.00288058 18.85378499 25.18880094 18.8125 27.375 C16.5025 27.375 14.1925 27.375 11.8125 27.375 C11.3175 17.97 11.3175 17.97 10.8125 8.375 C5.8625 8.045 0.9125 7.715 -4.1875 7.375 C-4.1875 13.975 -4.1875 20.575 -4.1875 27.375 C-6.4975 27.375 -8.8075 27.375 -11.1875 27.375 C-11.24534708 23.25005849 -11.28104407 19.12522056 -11.3125 15 C-11.32925781 13.824375 -11.34601563 12.64875 -11.36328125 11.4375 C-11.36972656 10.31601562 -11.37617188 9.19453125 -11.3828125 8.0390625 C-11.39328613 7.00217285 -11.40375977 5.9652832 -11.41455078 4.89697266 C-10.84644771 -1.41324748 -4.88405855 0.00733893 0 0 Z " fill="#8580FF" transform="translate(338.1875,13.625)"/>
<path d="M0 0 C3 0.125 3 0.125 4 1.125 C4.14115161 3.79558851 4.04247107 6.44932238 4 9.125 C7.63 9.125 11.26 9.125 15 9.125 C15 11.435 15 13.745 15 16.125 C11.37 16.125 7.74 16.125 4 16.125 C4.01160156 17.48496094 4.02320312 18.84492188 4.03515625 20.24609375 C4.04453262 22.0182278 4.05363298 23.79036333 4.0625 25.5625 C4.07087891 26.46033203 4.07925781 27.35816406 4.08789062 28.28320312 C4.09272461 29.56420898 4.09272461 29.56420898 4.09765625 30.87109375 C4.10551147 32.05723267 4.10551147 32.05723267 4.11352539 33.26733398 C4 35.125 4 35.125 3 36.125 C0.69 36.125 -1.62 36.125 -4 36.125 C-4 29.525 -4 22.925 -4 16.125 C-6.64 16.125 -9.28 16.125 -12 16.125 C-12 13.815 -12 11.505 -12 9.125 C-9.36 9.125 -6.72 9.125 -4 9.125 C-4.020625 7.825625 -4.04125 6.52625 -4.0625 5.1875 C-4.08399454 3.83334367 -4.07148199 2.47743917 -4 1.125 C-3 0.125 -3 0.125 0 0 Z " fill="#8680FF" transform="translate(118,4.875)"/>
<path d="M0 0 C1.20366211 0.00966797 1.20366211 0.00966797 2.43164062 0.01953125 C3.26501953 0.03628906 4.09839844 0.05304688 4.95703125 0.0703125 C6.22450195 0.08384766 6.22450195 0.08384766 7.51757812 0.09765625 C9.60168368 0.12120547 11.68564342 0.15707603 13.76953125 0.1953125 C13.76953125 2.5053125 13.76953125 4.8153125 13.76953125 7.1953125 C8.48953125 7.1953125 3.20953125 7.1953125 -2.23046875 7.1953125 C-2.21306641 10.42634766 -2.21306641 10.42634766 -2.1953125 13.72265625 C-2.18752138 15.80102389 -2.18144494 17.87938993 -2.17553711 19.95776367 C-2.17049774 21.40601323 -2.16366622 22.85425767 -2.1550293 24.30249023 C-2.14294628 26.38005838 -2.13723664 28.45755947 -2.1328125 30.53515625 C-2.12757568 31.78675537 -2.12233887 33.03835449 -2.11694336 34.32788086 C-2.23046875 37.1953125 -2.23046875 37.1953125 -3.23046875 38.1953125 C-5.56344308 38.23624187 -7.897521 38.23772973 -10.23046875 38.1953125 C-10.30515032 34.19352908 -10.35931896 30.19202083 -10.39526367 26.18969727 C-10.41026284 24.83090133 -10.43066913 23.47215309 -10.45678711 22.11352539 C-10.72473307 7.80731277 -10.72473307 7.80731277 -7.23046875 2.1953125 C-4.12961304 0.12807536 -3.50115194 -0.04966173 0 0 Z " fill="#8680FF" transform="translate(90.23046875,2.8046875)"/>
<path d="M0 0 C0.80566406 0.00322266 1.61132812 0.00644531 2.44140625 0.00976562 C3.70404297 0.02233398 3.70404297 0.02233398 4.9921875 0.03515625 C5.84167969 0.03966797 6.69117188 0.04417969 7.56640625 0.04882812 C9.66669659 0.06062751 11.7669508 0.07856319 13.8671875 0.09765625 C13.8671875 2.40765625 13.8671875 4.71765625 13.8671875 7.09765625 C5.9471875 7.59265625 5.9471875 7.59265625 -2.1328125 8.09765625 C-2.4628125 14.36765625 -2.7928125 20.63765625 -3.1328125 27.09765625 C-5.4428125 27.09765625 -7.7528125 27.09765625 -10.1328125 27.09765625 C-10.24942074 23.7021139 -10.32019622 20.30708946 -10.3828125 16.91015625 C-10.41632813 15.95044922 -10.44984375 14.99074219 -10.484375 14.00195312 C-10.58350502 6.83980902 -10.58350502 6.83980902 -8.2421875 2.984375 C-5.32669803 0.37663164 -3.81093955 -0.0268376 0 0 Z " fill="#8580FF" transform="translate(519.1328125,13.90234375)"/>
<path d="M0 0 C1.13598633 0.00483398 1.13598633 0.00483398 2.29492188 0.00976562 C3.47344727 0.02233398 3.47344727 0.02233398 4.67578125 0.03515625 C5.47306641 0.03966797 6.27035156 0.04417969 7.09179688 0.04882812 C9.05732382 0.06059775 11.0228121 0.07853277 12.98828125 0.09765625 C12.98828125 2.40765625 12.98828125 4.71765625 12.98828125 7.09765625 C7.70828125 7.09765625 2.42828125 7.09765625 -3.01171875 7.09765625 C-3.34171875 13.69765625 -3.67171875 20.29765625 -4.01171875 27.09765625 C-6.32171875 27.09765625 -8.63171875 27.09765625 -11.01171875 27.09765625 C-11.12870133 23.88963392 -11.19922482 20.682166 -11.26171875 17.47265625 C-11.29523438 16.56902344 -11.32875 15.66539063 -11.36328125 14.734375 C-11.44892448 8.86781356 -10.99255067 5.52239389 -7.01171875 1.09765625 C-4.30455633 0.19526878 -2.77395107 -0.02085677 0 0 Z " fill="#8580FF" transform="translate(224.01171875,13.90234375)"/>
<path d="M0 0 C2.93804996 -0.08086376 5.87388075 -0.1404283 8.8125 -0.1875 C9.64587891 -0.21263672 10.47925781 -0.23777344 11.33789062 -0.26367188 C12.54155273 -0.27817383 12.54155273 -0.27817383 13.76953125 -0.29296875 C14.87711792 -0.31653442 14.87711792 -0.31653442 16.00708008 -0.34057617 C18.59793079 0.10218222 19.45608012 0.89869531 21 3 C21.51445191 8.96764212 20.49517388 14.23290077 19 20 C17.68 20 16.36 20 15 20 C15.33 15.05 15.66 10.1 16 5 C15.01 4.67 14.02 4.34 13 4 C12.01 9.28 11.02 14.56 10 20 C8.68 20 7.36 20 6 20 C6.33 14.72 6.66 9.44 7 4 C6.01 4.33 5.02 4.66 4 5 C2.96259118 8.25374924 2.96259118 8.25374924 2.3125 12.0625 C2.06113281 13.35285156 1.80976563 14.64320312 1.55078125 15.97265625 C1.36902344 16.97167969 1.18726563 17.97070312 1 19 C-0.32 19.33 -1.64 19.66 -3 20 C-3.48452463 13.05514697 -1.69287491 6.7009632 0 0 Z " fill="#E2D9FF" transform="translate(458,59)"/>
<path d="M0 0 C2.5625 0.1875 2.5625 0.1875 4.5625 2.1875 C4.78955078 4.89306641 4.78955078 4.89306641 4.7578125 8.2890625 C4.75136719 9.50078125 4.74492187 10.7125 4.73828125 11.9609375 C4.72152344 13.23195313 4.70476562 14.50296875 4.6875 15.8125 C4.67847656 17.09125 4.66945313 18.37 4.66015625 19.6875 C4.63652303 22.85435167 4.60357629 26.02083424 4.5625 29.1875 C3.2425 29.1875 1.9225 29.1875 0.5625 29.1875 C0.5625 26.8775 0.5625 24.5675 0.5625 22.1875 C-1.7475 21.8575 -4.0575 21.5275 -6.4375 21.1875 C-6.685 22.30125 -6.9325 23.415 -7.1875 24.5625 C-8.4375 28.1875 -8.4375 28.1875 -10.5625 29.625 C-11.18125 29.810625 -11.8 29.99625 -12.4375 30.1875 C-13.91452091 26.34231076 -12.90633932 24.08279012 -11.3828125 20.36328125 C-10.93292969 19.25275391 -10.48304688 18.14222656 -10.01953125 16.99804688 C-9.53871094 15.84369141 -9.05789063 14.68933594 -8.5625 13.5 C-8.08941406 12.33404297 -7.61632812 11.16808594 -7.12890625 9.96679688 C-3.15312124 0.24254779 -3.15312124 0.24254779 0 0 Z M-0.4375 5.1875 C-1.7575 8.8175 -3.0775 12.4475 -4.4375 16.1875 C-2.9525 17.1775 -2.9525 17.1775 -1.4375 18.1875 C0.83466848 16.35012173 0.83466848 16.35012173 0.7578125 13.5859375 C0.73460937 12.58820312 0.71140625 11.59046875 0.6875 10.5625 C0.66945313 9.55960938 0.65140625 8.55671875 0.6328125 7.5234375 C0.60960937 6.75257812 0.58640625 5.98171875 0.5625 5.1875 C0.2325 5.1875 -0.0975 5.1875 -0.4375 5.1875 Z " fill="#E2D9FF" transform="translate(399.4375,49.8125)"/>
<path d="M0 0 C9.66283169 -0.85934274 9.66283169 -0.85934274 13.5625 2.125 C16.31896171 5.37621124 17.08480827 6.75958645 17 11 C15.76537835 15.28486336 14.88854272 17.38789279 11.1875 19.9375 C7.87235929 21.0425469 5.4669873 21.31518066 2 21 C1.34 20.67 0.68 20.34 0 20 C-0.33 22.97 -0.66 25.94 -1 29 C-2.32 29 -3.64 29 -5 29 C-4.49175795 22.59615021 -3.60797866 16.32301609 -2.5 10 C-2.36940186 9.245979 -2.23880371 8.49195801 -2.10424805 7.71508789 C-1.1258228 2.25164561 -1.1258228 2.25164561 0 0 Z M3 4 C2.34 8.29 1.68 12.58 1 17 C6.04901742 17.46596146 6.04901742 17.46596146 10.375 15.1875 C12.17066872 13.00778171 12.17066872 13.00778171 13 10 C11.84338843 7.79192337 10.77322566 5.77322566 9 4 C7.02 4 5.04 4 3 4 Z " fill="#E2DAFF" transform="translate(496,50)"/>
<path d="M0 0 C1.32 0 2.64 0 4 0 C3.67 2.97 3.34 5.94 3 9 C3.763125 8.9175 4.52625 8.835 5.3125 8.75 C8 9 8 9 9.67578125 10.67578125 C12.088667 14.91078721 10.87608687 19.38001063 10 24 C8.875 27.125 8.875 27.125 7 29 C3.21491697 29.89465599 -0.11169209 30 -4 30 C-4.25645895 23.26795268 -3.28162548 17.0986393 -2 10.5 C-1.80921875 9.48679687 -1.6184375 8.47359375 -1.421875 7.4296875 C-0.95435389 4.95182561 -0.48026672 2.47541732 0 0 Z M3 13 C1.32889958 15.96178773 0.67317248 18.37071192 0.375 21.75 C0.30023438 22.54921875 0.22546875 23.3484375 0.1484375 24.171875 C0.09945313 24.77515625 0.05046875 25.3784375 0 26 C1.65 25.67 3.3 25.34 5 25 C6.47075246 20.58774263 7.36884358 17.51718381 6 13 C5.01 13 4.02 13 3 13 Z " fill="#E2D9FF" transform="translate(348,50)"/>
<path d="M0 0 C1.32 0.33 2.64 0.66 4 1 C3.34 5.95 2.68 10.9 2 16 C3.32 16 4.64 16 6 16 C6.66 12.37 7.32 8.74 8 5 C9.32 4.67 10.64 4.34 12 4 C10.84968685 24.15031315 10.84968685 24.15031315 7 28 C5.00390625 28.203125 5.00390625 28.203125 2.5625 28.25 C1.75941406 28.27578125 0.95632813 28.3015625 0.12890625 28.328125 C-0.57363281 28.21984375 -1.27617187 28.1115625 -2 28 C-4 25 -4 25 -3.625 22.3125 C-3.41875 21.549375 -3.2125 20.78625 -3 20 C-2.01 20.33 -1.02 20.66 0 21 C0 21.99 0 22.98 0 24 C1.65 24 3.3 24 5 24 C5 22.68 5 21.36 5 20 C4.21625 20.04125 3.4325 20.0825 2.625 20.125 C0 20 0 20 -2 18 C-2.78911594 11.75670039 -1.76918884 5.97101234 0 0 Z " fill="#E2DAFF" transform="translate(363,59)"/>
<path d="M0 0 C1.32 0 2.64 0 4 0 C3.67 2.97 3.34 5.94 3 9 C3.94875 9.0825 4.8975 9.165 5.875 9.25 C9 10 9 10 10.23828125 11.6015625 C11.31263283 14.98439259 10.82693498 17.6297609 10.3125 21.125 C10.14363281 22.36507812 9.97476563 23.60515625 9.80078125 24.8828125 C9 28 9 28 6 30 C5 29 5 29 4.875 26 C4.92946523 21.63370405 5.45045847 17.32763957 6 13 C5.01 13.33 4.02 13.66 3 14 C2.11959804 16.54698226 1.4240961 18.95191274 0.8125 21.5625 C0.63525391 22.27341797 0.45800781 22.98433594 0.27539062 23.71679688 C-0.16122323 25.47505269 -0.58210434 27.23720155 -1 29 C-2.32 29 -3.64 29 -5 29 C-3.72029806 19.22909933 -2.02534911 9.64066177 0 0 Z " fill="#E2D9FF" transform="translate(548,50)"/>
<path d="M0 0 C3.5625 0.3125 3.5625 0.3125 5.5 1.375 C7.15412584 4.39134711 6.86825763 6.94916608 6.5625 10.3125 C5.9025 10.9725 5.2425 11.6325 4.5625 12.3125 C4.8409375 13.240625 4.8409375 13.240625 5.125 14.1875 C5.5625 16.3125 5.5625 16.3125 4.5625 18.5625 C2.5625 20.3125 2.5625 20.3125 -0.9375 20.75 C-4.4375 20.3125 -4.4375 20.3125 -6.375 19.3125 C-8.71450955 14.90871731 -7.60973781 10.07526745 -6.5625 5.4375 C-5.04168553 1.21301537 -4.53708628 0.41246239 0 0 Z M-1.4375 4.3125 C-1.7675 5.9625 -2.0975 7.6125 -2.4375 9.3125 C-1.1175 8.9825 0.2025 8.6525 1.5625 8.3125 C1.5625 6.9925 1.5625 5.6725 1.5625 4.3125 C0.5725 4.3125 -0.4175 4.3125 -1.4375 4.3125 Z M-3.4375 12.3125 C-3.4375 13.6325 -3.4375 14.9525 -3.4375 16.3125 C-2.1175 16.3125 -0.7975 16.3125 0.5625 16.3125 C0.8925 15.3225 1.2225 14.3325 1.5625 13.3125 C-0.0875 12.9825 -1.7375 12.6525 -3.4375 12.3125 Z " fill="#E2DAFF" transform="translate(520.4375,58.6875)"/>
<path d="M0 0 C2 1.625 2 1.625 3 4 C2.77962372 7.67293796 2.63033454 9.36966546 0 12 C0.33 12.33 0.66 12.66 1 13 C1.1875 15.4375 1.1875 15.4375 1 18 C-1.57990801 20.57990801 -3.50244461 20.31598838 -7.02734375 20.4609375 C-9 20 -9 20 -10.765625 18.28515625 C-12.93060778 14.27719762 -11.81272512 10.32986312 -11 6 C-10.0625 2.9375 -10.0625 2.9375 -9 1 C-5.9167365 -0.54163175 -3.39121901 -0.29747535 0 0 Z M-5 4 C-5.66 5.65 -6.32 7.3 -7 9 C-5.35 8.67 -3.7 8.34 -2 8 C-2 6.68 -2 5.36 -2 4 C-2.99 4 -3.98 4 -5 4 Z M-8 12 C-7.67 13.32 -7.34 14.64 -7 16 C-5.02463255 15.65213292 -5.02463255 15.65213292 -3 15 C-2.67 14.34 -2.34 13.68 -2 13 C-4.97 12.505 -4.97 12.505 -8 12 Z " fill="#E2D9FF" transform="translate(572,59)"/>
<path d="M0 0 C1.875 1.0625 1.875 1.0625 3 3 C3.3125 6.5625 3.3125 6.5625 3 10 C2.34 10.66 1.68 11.32 1 12 C1.185625 12.804375 1.37125 13.60875 1.5625 14.4375 C2 17 2 17 1 18.8125 C-2.0761566 20.63896798 -4.50409032 20.37456175 -8 20 C-9.9375 18.9375 -9.9375 18.9375 -11 17 C-11.67871233 11.34406389 -10.39710795 6.12409313 -8 1 C-5.20129973 -0.39935013 -3.09501208 -0.25265405 0 0 Z M-5 4 C-5.33 5.65 -5.66 7.3 -6 9 C-4.35 8.67 -2.7 8.34 -1 8 C-1 6.68 -1 5.36 -1 4 C-2.32 4 -3.64 4 -5 4 Z M-7 12 C-6.67 13.32 -6.34 14.64 -6 16 C-4.68 15.67 -3.36 15.34 -2 15 C-2 14.34 -2 13.68 -2 13 C-3.65 12.67 -5.3 12.34 -7 12 Z " fill="#E2D9FF" transform="translate(451,59)"/>
<path d="M0 0 C2.31 0 4.62 0 7 0 C7.02886537 4.31248609 7.04675255 8.62494762 7.0625 12.9375 C7.07087891 14.16919922 7.07925781 15.40089844 7.08789062 16.66992188 C7.09111328 17.83974609 7.09433594 19.00957031 7.09765625 20.21484375 C7.10289307 21.29886475 7.10812988 22.38288574 7.11352539 23.49975586 C7 26 7 26 6 27 C4.02 27 2.04 27 0 27 C0 18.09 0 9.18 0 0 Z " fill="#8680FF" transform="translate(537,14)"/>
<path d="M0 0 C2.31 0 4.62 0 7 0 C7.02886537 4.31248609 7.04675255 8.62494762 7.0625 12.9375 C7.07087891 14.16919922 7.07925781 15.40089844 7.08789062 16.66992188 C7.09111328 17.83974609 7.09433594 19.00957031 7.09765625 20.21484375 C7.10289307 21.29886475 7.10812988 22.38288574 7.11352539 23.49975586 C7 26 7 26 6 27 C4.02 27 2.04 27 0 27 C0 18.09 0 9.18 0 0 Z " fill="#8680FF" transform="translate(397,14)"/>
<path d="M0 0 C1.43583001 -0.10836453 2.8740202 -0.18576167 4.3125 -0.25 C5.51326172 -0.31960937 5.51326172 -0.31960937 6.73828125 -0.390625 C9 0 9 0 10.8046875 1.6796875 C13.45126288 6.81715736 11.46794534 13.37595439 9.9375 18.6875 C9.628125 19.450625 9.31875 20.21375 9 21 C8.01 20.67 7.02 20.34 6 20 C6.33 15.05 6.66 10.1 7 5 C6.01 5 5.02 5 4 5 C3.82984375 5.98742187 3.6596875 6.97484375 3.484375 7.9921875 C3.24203125 9.27351563 2.9996875 10.55484375 2.75 11.875 C2.51796875 13.15117188 2.2859375 14.42734375 2.046875 15.7421875 C1 19 1 19 -1.109375 20.4453125 C-1.73328125 20.62835938 -2.3571875 20.81140625 -3 21 C-3.37369729 13.52605426 -2.04061541 7.17859349 0 0 Z " fill="#E2D9FF" transform="translate(602,59)"/>
<path d="M0 0 C3.625 0.25 3.625 0.25 5.5625 1.375 C7.06984863 4.035027 6.82486253 6.25206205 6.625 9.25 C5.305 9.25 3.985 9.25 2.625 9.25 C2.295 7.93 1.965 6.61 1.625 5.25 C0.635 5.25 -0.355 5.25 -1.375 5.25 C-2.035 8.88 -2.695 12.51 -3.375 16.25 C-2.385 16.25 -1.395 16.25 -0.375 16.25 C0.285 15.26 0.945 14.27 1.625 13.25 C2.945 13.58 4.265 13.91 5.625 14.25 C5 16.625 5 16.625 3.625 19.25 C0.21746751 21.06735066 -1.49931181 21.4784404 -5.25 20.5 C-7.74707551 17.8560377 -7.75650665 17.0332564 -7.875 13.5 C-7.59333398 7.67036692 -6.72688777 0.49828798 0 0 Z " fill="#E1D9FF" transform="translate(536.375,58.75)"/>
<path d="M0 0 C1.32 0 2.64 0 4 0 C4 1.32 4 2.64 4 4 C5.65 4 7.3 4 9 4 C9 5.32 9 6.64 9 8 C7.02 8 5.04 8 3 8 C3 10.31 3 12.62 3 15 C3.99 15 4.98 15 6 15 C6.33 14.34 6.66 13.68 7 13 C8.32 13 9.64 13 11 13 C10.72684137 16.36895649 10.38658365 17.65759734 7.8125 19.9375 C5 21 5 21 1.75 20.3125 C-1 19 -1 19 -2 17 C-2.31557831 11.00401214 -1.50301405 5.79733991 0 0 Z " fill="#E2D9FF" transform="translate(427,59)"/>
<path d="M0 0 C6.93 0 13.86 0 21 0 C21 1.98 21 3.96 21 6 C20 7 20 7 18.05053711 7.11352539 C17.2178833 7.10828857 16.38522949 7.10305176 15.52734375 7.09765625 C14.62822266 7.09443359 13.72910156 7.09121094 12.80273438 7.08789062 C11.85720703 7.07951172 10.91167969 7.07113281 9.9375 7.0625 C8.98810547 7.05798828 8.03871094 7.05347656 7.06054688 7.04882812 C4.70696935 7.0370011 2.35351523 7.02052025 0 7 C0 4.69 0 2.38 0 0 Z " fill="#8580FF" transform="translate(299,20)"/>
<path d="M0 0 C1.43655854 -0.08131463 2.8744483 -0.13933559 4.3125 -0.1875 C5.51326172 -0.23970703 5.51326172 -0.23970703 6.73828125 -0.29296875 C9 0 9 0 10.78125 1.3125 C12.59219053 3.81995612 12.20005332 5.99920026 12 9 C10.68 9 9.36 9 8 9 C7.67 7.68 7.34 6.36 7 5 C6.01 5 5.02 5 4 5 C3.01 9.95 2.02 14.9 1 20 C-0.32 20 -1.64 20 -3 20 C-2.51358785 13.15182898 -1.64006048 6.66957927 0 0 Z " fill="#E1D9FF" transform="translate(578,59)"/>
<path d="M0 0 C1.43655854 -0.08131463 2.8744483 -0.13933559 4.3125 -0.1875 C5.51326172 -0.23970703 5.51326172 -0.23970703 6.73828125 -0.29296875 C9 0 9 0 10.78125 1.3125 C12.59219053 3.81995612 12.20005332 5.99920026 12 9 C10.68 9 9.36 9 8 9 C7.67 7.68 7.34 6.36 7 5 C6.01 5 5.02 5 4 5 C3.01 9.95 2.02 14.9 1 20 C-0.32 20 -1.64 20 -3 20 C-2.51358785 13.15182898 -1.64006048 6.66957927 0 0 Z " fill="#E1D9FF" transform="translate(410,59)"/>
<path d="M0 0 C1.93166016 0.01740234 1.93166016 0.01740234 3.90234375 0.03515625 C5.19269531 0.04417969 6.48304687 0.05320312 7.8125 0.0625 C8.81152344 0.07410156 9.81054688 0.08570313 10.83984375 0.09765625 C10.83984375 2.40765625 10.83984375 4.71765625 10.83984375 7.09765625 C5.88984375 7.09765625 0.93984375 7.09765625 -4.16015625 7.09765625 C-4.16015625 0.1285586 -4.16015625 0.1285586 0 0 Z " fill="#8680FF" transform="translate(93.16015625,13.90234375)"/>
<path d="M0 0 C1.32 0 2.64 0 4 0 C2.07289294 14.78132118 2.07289294 14.78132118 0 21 C-0.99 20.67 -1.98 20.34 -3 20 C-3.48452463 13.05514697 -1.69287491 6.7009632 0 0 Z " fill="#E2DAFF" transform="translate(595,59)"/>
<path d="M0 0 C2.31 0 4.62 0 7 0 C7 1.98 7 3.96 7 6 C4.69 6 2.38 6 0 6 C0 4.02 0 2.04 0 0 Z " fill="#8680FF" transform="translate(537,3)"/>
<path d="M0 0 C2.31 0 4.62 0 7 0 C7 1.98 7 3.96 7 6 C4.69 6 2.38 6 0 6 C0 4.02 0 2.04 0 0 Z " fill="#8680FF" transform="translate(397,3)"/>
</svg>
